<?xml version="1.0" encoding="utf-8"?>
<svg xmlns="http://www.w3.org/2000/svg">
<symbol id="blue" viewBox="0 0 50 50"><path fill="#0055AF" d="M25 49.5C11.5 49.5.5 38.5.5 25S11.5.5 25 .5s24.5 11 24.5 24.5-11 24.5-24.5 24.5z"/><path fill="#FFF" d="M25 1c13.2 0 24 10.8 24 24S38.2 49 25 49 1 38.2 1 25 11.8 1 25 1m0-1C11.2 0 0 11.2 0 25s11.2 25 25 25 25-11.2 25-25S38.8 0 25 0z"/>
</symbol>
<symbol id="orange" viewBox="0 0 50 50"><path d="M25 48.3C12 48.3 1.5 37.8 1.5 25S12 1.7 25 1.7 48.4 12.1 48.4 25 37.9 48.3 25 48.3z" fill="#f0af3b" stroke="#fff" stroke-width="3" stroke-miterlimit="10"/><path d="M25 1c13.2 0 24 10.8 24 24S38.2 49 25 49 1 38.2 1 25 11.8 1 25 1m0-1C11.2 0 0 11.2 0 25s11.2 25 25 25 25-11.2 25-25S38.8 0 25 0z" fill="#fff"/>
</symbol>
<symbol id="sprite"><symbol id="blue" viewBox="0 0 50 50"><path fill="#0055AF" d="M25 49.5C11.5 49.5.5 38.5.5 25S11.5.5 25 .5s24.5 11 24.5 24.5-11 24.5-24.5 24.5z"/><path fill="#FFF" d="M25 1c13.2 0 24 10.8 24 24S38.2 49 25 49 1 38.2 1 25 11.8 1 25 1m0-1C11.2 0 0 11.2 0 25s11.2 25 25 25 25-11.2 25-25S38.8 0 25 0z"/></symbol><symbol id="orange" viewBox="0 0 50 50"><path d="M25 48.3C12 48.3 1.5 37.8 1.5 25S12 1.7 25 1.7 48.4 12.1 48.4 25 37.9 48.3 25 48.3z" fill="#f0af3b" stroke="#fff" stroke-width="3" stroke-miterlimit="10"/><path d="M25 1c13.2 0 24 10.8 24 24S38.2 49 25 49 1 38.2 1 25 11.8 1 25 1m0-1C11.2 0 0 11.2 0 25s11.2 25 25 25 25-11.2 25-25S38.8 0 25 0z" fill="#fff"/></symbol><symbol id="sprite"><symbol id="world" viewBox="0 0 94.4 100"><style>.st0{fill:#848484}</style><path class="st0" d="M55.2 44.5v50.3l13-12.9 9.4 18.1 6.8-3.5L75.3 79h17.5z"/><path class="st0" d="M93.9 53.8c.1-.7.2-1.3.3-2 .2-1.5.2-3 .2-4.6s-.1-3-.2-4.5c-.1-.8-.2-1.5-.3-2.3-.1-.5-.1-1.1-.2-1.6C90.2 19.5 75 4.3 55.7.8 55 .6 54.4.6 53.8.5s-1.3-.2-2-.3c-1.5-.1-3-.2-4.5-.2s-3 .1-4.5.2c-.7.1-1.4.2-2 .3s-1.3.1-1.9.2C19.6 4.2 4.4 19.4.9 38.7c-.1.6-.2 1.2-.2 1.7S.3 42 .2 42.7c-.1 1.5-.2 3-.2 4.5s.1 3 .2 4.5c.1.8.2 1.5.3 2.3.1.5.1 1.1.2 1.7 3.5 19.3 18.7 34.5 38 38 .6.1 1.2.2 1.8.2s1.4.2 2.2.3c1.5.1 3 .2 4.5.2h.1v-11h-.1c-2.1 0-4.1-.2-6.2-.6-1.9-6.1-3.2-12.3-3.8-18.6 3.2.2 6.6.3 10 .3h.1v-6.3h-.1c-3.8 0-7.3-.1-10.6-.3-.2-3.3-.4-6.8-.4-10.6s.1-7.3.3-10.6c3.3-.2 6.9-.3 10.6-.3s7.3.1 10.6.3v.6c1 .3 1.9.9 2.7 1.6l3.9 3.5-.3-5.1c6.4.7 12.7 1.9 18.8 3.8.4 2 .5 4.1.6 6.2 0 2.1-.2 4.1-.5 6.2-1.5.5-3.1 1-4.9 1.4l3.7 3.4 8.7 8c1.5-3.4 2.5-6.9 3.2-10.5.2-.8.2-1.4.3-2zm-60-40.2c-1.5 5.7-2.5 11.4-3.1 17.2-5.8.6-11.6 1.6-17.2 3.1 3.7-9.3 11-16.6 20.3-20.3zm0 67.2c-9.3-3.7-16.6-11-20.3-20.3C19.3 62 25 63 30.8 63.6c.6 5.8 1.6 11.6 3.1 17.2zm-3.6-23.6c-6.3-.7-12.6-2-18.7-3.8-.8-4.1-.8-8.3 0-12.4 6.1-1.9 12.4-3.2 18.7-3.8-.2 3.2-.3 6.6-.3 10s.1 6.8.3 10zm16.9-27.3c-3.4 0-6.8.1-10 .3.7-6.3 2-12.6 3.8-18.7 4.1-.8 8.3-.8 12.4 0 1.9 6.1 3.1 12.4 3.8 18.7-3.2-.2-6.5-.3-10-.3zm16.4.9c-.6-5.8-1.6-11.6-3-17.2 9.3 3.7 16.6 11 20.3 20.3-5.7-1.5-11.5-2.5-17.3-3.1z"/></symbol><symbol id="zoom" viewBox="0 0 66.8 66.9"><style>.st2{fill:#848484}</style><path class="st2" d="M26.8 53.6c6.8 0 13.1-2.6 17.8-6.8l19.6 19.6c.3.3.7.4 1.1.4s.8-.1 1.1-.4c.6-.6.6-1.5 0-2.1L46.8 44.7c4.3-4.8 6.9-11 6.9-17.9C53.6 12 41.6 0 26.8 0S0 12 0 26.8s12 26.8 26.8 26.8zm0-50.6C40 3 50.6 13.7 50.6 26.8c0 6.2-2.4 11.8-6.3 16.1-.4 0-1.5 1.1-1.5 1.5-4.2 3.9-9.9 6.2-16 6.2C13.7 50.6 3 40 3 26.8S13.7 3 26.8 3z"/><path class="st2" d="M15.2 28.1h10.3v10.3c0 .7.6 1.3 1.3 1.3s1.3-.6 1.3-1.3V28.1h10.3c.7 0 1.3-.6 1.3-1.3s-.6-1.3-1.3-1.3H28.1V15.2c0-.7-.6-1.3-1.3-1.3s-1.3.6-1.3 1.3v10.3H15.2c-.7 0-1.3.6-1.3 1.3s.6 1.3 1.3 1.3z"/></symbol></symbol><symbol id="world" viewBox="0 0 94.4 100"><style>.st0{fill:#848484}</style><path class="st0" d="M55.2 44.5v50.3l13-12.9 9.4 18.1 6.8-3.5L75.3 79h17.5z"/><path class="st0" d="M93.9 53.8c.1-.7.2-1.3.3-2 .2-1.5.2-3 .2-4.6s-.1-3-.2-4.5c-.1-.8-.2-1.5-.3-2.3-.1-.5-.1-1.1-.2-1.6C90.2 19.5 75 4.3 55.7.8 55 .6 54.4.6 53.8.5s-1.3-.2-2-.3c-1.5-.1-3-.2-4.5-.2s-3 .1-4.5.2c-.7.1-1.4.2-2 .3s-1.3.1-1.9.2C19.6 4.2 4.4 19.4.9 38.7c-.1.6-.2 1.2-.2 1.7S.3 42 .2 42.7c-.1 1.5-.2 3-.2 4.5s.1 3 .2 4.5c.1.8.2 1.5.3 2.3.1.5.1 1.1.2 1.7 3.5 19.3 18.7 34.5 38 38 .6.1 1.2.2 1.8.2s1.4.2 2.2.3c1.5.1 3 .2 4.5.2h.1v-11h-.1c-2.1 0-4.1-.2-6.2-.6-1.9-6.1-3.2-12.3-3.8-18.6 3.2.2 6.6.3 10 .3h.1v-6.3h-.1c-3.8 0-7.3-.1-10.6-.3-.2-3.3-.4-6.8-.4-10.6s.1-7.3.3-10.6c3.3-.2 6.9-.3 10.6-.3s7.3.1 10.6.3v.6c1 .3 1.9.9 2.7 1.6l3.9 3.5-.3-5.1c6.4.7 12.7 1.9 18.8 3.8.4 2 .5 4.1.6 6.2 0 2.1-.2 4.1-.5 6.2-1.5.5-3.1 1-4.9 1.4l3.7 3.4 8.7 8c1.5-3.4 2.5-6.9 3.2-10.5.2-.8.2-1.4.3-2zm-60-40.2c-1.5 5.7-2.5 11.4-3.1 17.2-5.8.6-11.6 1.6-17.2 3.1 3.7-9.3 11-16.6 20.3-20.3zm0 67.2c-9.3-3.7-16.6-11-20.3-20.3C19.3 62 25 63 30.8 63.6c.6 5.8 1.6 11.6 3.1 17.2zm-3.6-23.6c-6.3-.7-12.6-2-18.7-3.8-.8-4.1-.8-8.3 0-12.4 6.1-1.9 12.4-3.2 18.7-3.8-.2 3.2-.3 6.6-.3 10s.1 6.8.3 10zm16.9-27.3c-3.4 0-6.8.1-10 .3.7-6.3 2-12.6 3.8-18.7 4.1-.8 8.3-.8 12.4 0 1.9 6.1 3.1 12.4 3.8 18.7-3.2-.2-6.5-.3-10-.3zm16.4.9c-.6-5.8-1.6-11.6-3-17.2 9.3 3.7 16.6 11 20.3 20.3-5.7-1.5-11.5-2.5-17.3-3.1z"/></symbol><symbol id="zoom" viewBox="0 0 66.8 66.9"><style>.st2{fill:#848484}</style><path class="st2" d="M26.8 53.6c6.8 0 13.1-2.6 17.8-6.8l19.6 19.6c.3.3.7.4 1.1.4s.8-.1 1.1-.4c.6-.6.6-1.5 0-2.1L46.8 44.7c4.3-4.8 6.9-11 6.9-17.9C53.6 12 41.6 0 26.8 0S0 12 0 26.8s12 26.8 26.8 26.8zm0-50.6C40 3 50.6 13.7 50.6 26.8c0 6.2-2.4 11.8-6.3 16.1-.4 0-1.5 1.1-1.5 1.5-4.2 3.9-9.9 6.2-16 6.2C13.7 50.6 3 40 3 26.8S13.7 3 26.8 3z"/><path class="st2" d="M15.2 28.1h10.3v10.3c0 .7.6 1.3 1.3 1.3s1.3-.6 1.3-1.3V28.1h10.3c.7 0 1.3-.6 1.3-1.3s-.6-1.3-1.3-1.3H28.1V15.2c0-.7-.6-1.3-1.3-1.3s-1.3.6-1.3 1.3v10.3H15.2c-.7 0-1.3.6-1.3 1.3s.6 1.3 1.3 1.3z"/></symbol>
</symbol>
<symbol id="world" viewBox="0 0 94.4 100"><style>.st0{fill:#848484}</style><path class="st0" d="M55.2 44.5v50.3l13-12.9 9.4 18.1 6.8-3.5L75.3 79h17.5z"/><path class="st0" d="M93.9 53.8c.1-.7.2-1.3.3-2 .2-1.5.2-3 .2-4.6s-.1-3-.2-4.5c-.1-.8-.2-1.5-.3-2.3-.1-.5-.1-1.1-.2-1.6C90.2 19.5 75 4.3 55.7.8 55 .6 54.4.6 53.8.5s-1.3-.2-2-.3c-1.5-.1-3-.2-4.5-.2s-3 .1-4.5.2c-.7.1-1.4.2-2 .3s-1.3.1-1.9.2C19.6 4.2 4.4 19.4.9 38.7c-.1.6-.2 1.2-.2 1.7S.3 42 .2 42.7c-.1 1.5-.2 3-.2 4.5s.1 3 .2 4.5c.1.8.2 1.5.3 2.3.1.5.1 1.1.2 1.7 3.5 19.3 18.7 34.5 38 38 .6.1 1.2.2 1.8.2s1.4.2 2.2.3c1.5.1 3 .2 4.5.2h.1v-11h-.1c-2.1 0-4.1-.2-6.2-.6-1.9-6.1-3.2-12.3-3.8-18.6 3.2.2 6.6.3 10 .3h.1v-6.3h-.1c-3.8 0-7.3-.1-10.6-.3-.2-3.3-.4-6.8-.4-10.6s.1-7.3.3-10.6c3.3-.2 6.9-.3 10.6-.3s7.3.1 10.6.3v.6c1 .3 1.9.9 2.7 1.6l3.9 3.5-.3-5.1c6.4.7 12.7 1.9 18.8 3.8.4 2 .5 4.1.6 6.2 0 2.1-.2 4.1-.5 6.2-1.5.5-3.1 1-4.9 1.4l3.7 3.4 8.7 8c1.5-3.4 2.5-6.9 3.2-10.5.2-.8.2-1.4.3-2zm-60-40.2c-1.5 5.7-2.5 11.4-3.1 17.2-5.8.6-11.6 1.6-17.2 3.1 3.7-9.3 11-16.6 20.3-20.3zm0 67.2c-9.3-3.7-16.6-11-20.3-20.3C19.3 62 25 63 30.8 63.6c.6 5.8 1.6 11.6 3.1 17.2zm-3.6-23.6c-6.3-.7-12.6-2-18.7-3.8-.8-4.1-.8-8.3 0-12.4 6.1-1.9 12.4-3.2 18.7-3.8-.2 3.2-.3 6.6-.3 10s.1 6.8.3 10zm16.9-27.3c-3.4 0-6.8.1-10 .3.7-6.3 2-12.6 3.8-18.7 4.1-.8 8.3-.8 12.4 0 1.9 6.1 3.1 12.4 3.8 18.7-3.2-.2-6.5-.3-10-.3zm16.4.9c-.6-5.8-1.6-11.6-3-17.2 9.3 3.7 16.6 11 20.3 20.3-5.7-1.5-11.5-2.5-17.3-3.1z"/>
</symbol>
<symbol id="zoom" viewBox="0 0 66.8 66.9"><style>.st2{fill:#848484}</style><path class="st2" d="M26.8 53.6c6.8 0 13.1-2.6 17.8-6.8l19.6 19.6c.3.3.7.4 1.1.4s.8-.1 1.1-.4c.6-.6.6-1.5 0-2.1L46.8 44.7c4.3-4.8 6.9-11 6.9-17.9C53.6 12 41.6 0 26.8 0S0 12 0 26.8s12 26.8 26.8 26.8zm0-50.6C40 3 50.6 13.7 50.6 26.8c0 6.2-2.4 11.8-6.3 16.1-.4 0-1.5 1.1-1.5 1.5-4.2 3.9-9.9 6.2-16 6.2C13.7 50.6 3 40 3 26.8S13.7 3 26.8 3z"/><path class="st2" d="M15.2 28.1h10.3v10.3c0 .7.6 1.3 1.3 1.3s1.3-.6 1.3-1.3V28.1h10.3c.7 0 1.3-.6 1.3-1.3s-.6-1.3-1.3-1.3H28.1V15.2c0-.7-.6-1.3-1.3-1.3s-1.3.6-1.3 1.3v10.3H15.2c-.7 0-1.3.6-1.3 1.3s.6 1.3 1.3 1.3z"/>
</symbol></svg>