<svg id="Layer_1" xmlns="http://www.w3.org/2000/svg" viewBox="0 0 94.4 100"><style>.st0{fill:#848484}</style><title>all</title><path class="st0" d="M55.2 44.5v50.3l13-12.9 9.4 18.1 6.8-3.5L75.3 79h17.5z"/><path class="st0" d="M93.9 53.8c.1-.7.2-1.3.3-2 .2-1.5.2-3 .2-4.6s-.1-3-.2-4.5c-.1-.8-.2-1.5-.3-2.3-.1-.5-.1-1.1-.2-1.6C90.2 19.5 75 4.3 55.7.8 55 .6 54.4.6 53.8.5s-1.3-.2-2-.3c-1.5-.1-3-.2-4.5-.2s-3 .1-4.5.2c-.7.1-1.4.2-2 .3s-1.3.1-1.9.2C19.6 4.2 4.4 19.4.9 38.7c-.1.6-.2 1.2-.2 1.7S.3 42 .2 42.7c-.1 1.5-.2 3-.2 4.5s.1 3 .2 4.5c.1.8.2 1.5.3 2.3.1.5.1 1.1.2 1.7 3.5 19.3 18.7 34.5 38 38 .6.1 1.2.2 1.8.2s1.4.2 2.2.3c1.5.1 3 .2 4.5.2h.1v-11h-.1c-2.1 0-4.1-.2-6.2-.6-1.9-6.1-3.2-12.3-3.8-18.6 3.2.2 6.6.3 10 .3h.1v-6.3h-.1c-3.8 0-7.3-.1-10.6-.3-.2-3.3-.4-6.8-.4-10.6s.1-7.3.3-10.6c3.3-.2 6.9-.3 10.6-.3s7.3.1 10.6.3v.6c1 .3 1.9.9 2.7 1.6l3.9 3.5-.3-5.1c6.4.7 12.7 1.9 18.8 3.8.4 2 .5 4.1.6 6.2 0 2.1-.2 4.1-.5 6.2-1.5.5-3.1 1-4.9 1.4l3.7 3.4 8.7 8c1.5-3.4 2.5-6.9 3.2-10.5.2-.8.2-1.4.3-2zm-60-40.2c-1.5 5.7-2.5 11.4-3.1 17.2-5.8.6-11.6 1.6-17.2 3.1 3.7-9.3 11-16.6 20.3-20.3zm0 67.2c-9.3-3.7-16.6-11-20.3-20.3C19.3 62 25 63 30.8 63.6c.6 5.8 1.6 11.6 3.1 17.2zm-3.6-23.6c-6.3-.7-12.6-2-18.7-3.8-.8-4.1-.8-8.3 0-12.4 6.1-1.9 12.4-3.2 18.7-3.8-.2 3.2-.3 6.6-.3 10s.1 6.8.3 10zm16.9-27.3c-3.4 0-6.8.1-10 .3.7-6.3 2-12.6 3.8-18.7 4.1-.8 8.3-.8 12.4 0 1.9 6.1 3.1 12.4 3.8 18.7-3.2-.2-6.5-.3-10-.3zm16.4.9c-.6-5.8-1.6-11.6-3-17.2 9.3 3.7 16.6 11 20.3 20.3-5.7-1.5-11.5-2.5-17.3-3.1z"/></svg>