<svg id="Layer_1" xmlns="http://www.w3.org/2000/svg" viewBox="0 0 66.8 66.9"><style>.st0{display:none}.st1{display:inline}.st2{fill:#848484}</style><g class="st0"><path class="st1" d="M-557.9-509.8h1566.2V762.3H-557.9z"/></g><path class="st2" d="M26.8 53.6c6.8 0 13.1-2.6 17.8-6.8l19.6 19.6c.3.3.7.4 1.1.4s.8-.1 1.1-.4c.6-.6.6-1.5 0-2.1L46.8 44.7c4.3-4.8 6.9-11 6.9-17.9C53.6 12 41.6 0 26.8 0S0 12 0 26.8s12 26.8 26.8 26.8zm0-50.6C40 3 50.6 13.7 50.6 26.8c0 6.2-2.4 11.8-6.3 16.1-.4 0-1.5 1.1-1.5 1.5-4.2 3.9-9.9 6.2-16 6.2C13.7 50.6 3 40 3 26.8S13.7 3 26.8 3z"/><path class="st2" d="M15.2 28.1h10.3v10.3c0 .7.6 1.3 1.3 1.3s1.3-.6 1.3-1.3V28.1h10.3c.7 0 1.3-.6 1.3-1.3s-.6-1.3-1.3-1.3H28.1V15.2c0-.7-.6-1.3-1.3-1.3s-1.3.6-1.3 1.3v10.3H15.2c-.7 0-1.3.6-1.3 1.3s.6 1.3 1.3 1.3z"/></svg>